<svg width="32" height="32" viewBox="0 0 32 32" fill="none" xmlns="http://www.w3.org/2000/svg">
  <circle cx="16" cy="16" r="16" fill="#0ea5e9"/>
  <path d="M12 10C12 8.895 12.895 8 14 8H18C19.105 8 20 8.895 20 10V14C20 15.105 19.105 16 18 16H14C12.895 16 12 15.105 12 14V10Z" fill="white"/>
  <path d="M8 18C8 16.895 8.895 16 10 16H14C15.105 16 16 16.895 16 18V22C16 23.105 15.105 24 14 24H10C8.895 24 8 23.105 8 22V18Z" fill="white"/>
  <path d="M16 18C16 16.895 16.895 16 18 16H22C23.105 16 24 16.895 24 18V22C24 23.105 23.105 24 22 24H18C16.895 24 16 23.105 16 22V18Z" fill="white"/>
</svg>